<svg width="50" height="50" viewBox="0 0 50 50" fill="none" xmlns="http://www.w3.org/2000/svg">
<rect x="1.5" y="1.5" width="47" height="47" rx="23.5" stroke="#88E6A9" stroke-width="3"/>
<path d="M18.3333 26.6667V33.3333H15V36.6667H20V40H23.3333V36.6667H26.6667V40H30V36.5817C33.28 36.1667 35.8333 33.39 35.8333 30C35.8333 27.8 34.75 25.86 33.1 24.645C34.3169 23.405 34.9991 21.7373 35 20C35 16.9033 32.8683 14.315 30 13.57V10H26.6667V13.3333H23.3333V10H20V13.3333H15V16.6667H18.3333V26.6667ZM29.1667 33.3333H21.6667V26.6667H29.1667C31.005 26.6667 32.5 28.1617 32.5 30C32.5 31.8383 31.005 33.3333 29.1667 33.3333ZM21.6667 16.6667H28.3333C30.1717 16.6667 31.6667 18.1617 31.6667 20C31.6667 21.8383 30.1717 23.3333 28.3333 23.3333H21.6667V16.6667Z" fill="#88E6A9"/>
</svg>
