<svg width="268" height="268" viewBox="0 0 268 268" fill="none" xmlns="http://www.w3.org/2000/svg">
<path fill-rule="evenodd" clip-rule="evenodd" d="M248.466 194.861C232.765 227.788 211.775 274.284 173.236 267.058C133.576 259.621 98.8347 224.682 98.8347 177.341C68.9232 148.979 17.3282 144.491 4.08405 106.667C-9.35319 68.2926 18.2821 29.0567 49.3108 8.33909C76.5726 -9.86345 114.551 7.35062 149.372 9.65986C181.681 11.8025 237.01 -0.999317 260.335 23.8413C283.578 48.5957 245.549 81.3371 246.6 113.208C247.535 141.529 260.109 170.445 248.466 194.861Z" fill="#4856CE"/>
<path fill-rule="evenodd" clip-rule="evenodd" d="M248.466 194.861C232.765 227.788 211.775 274.284 173.236 267.058C133.576 259.621 98.8347 224.682 98.8347 177.341C68.9232 148.979 17.3282 144.491 4.08405 106.667C-9.35319 68.2926 18.2821 29.0567 49.3108 8.33909C76.5726 -9.86345 114.551 7.35062 149.372 9.65986C181.681 11.8025 237.01 -0.999317 260.335 23.8413C283.578 48.5957 245.549 81.3371 246.6 113.208C247.535 141.529 260.109 170.445 248.466 194.861Z" fill="url(#paint0_radial_259_3)"/>
<path fill-rule="evenodd" clip-rule="evenodd" d="M248.466 194.861C232.765 227.788 211.775 274.284 173.236 267.058C133.576 259.621 98.8347 224.682 98.8347 177.341C68.9232 148.979 17.3282 144.491 4.08405 106.667C-9.35319 68.2926 18.2821 29.0567 49.3108 8.33909C76.5726 -9.86345 114.551 7.35062 149.372 9.65986C181.681 11.8025 237.01 -0.999317 260.335 23.8413C283.578 48.5957 245.549 81.3371 246.6 113.208C247.535 141.529 260.109 170.445 248.466 194.861Z" fill="url(#paint1_radial_259_3)" fill-opacity="0.5"/>
<defs>
<radialGradient id="paint0_radial_259_3" cx="0" cy="0" r="1" gradientUnits="userSpaceOnUse" gradientTransform="translate(173.325 244.643) rotate(-116.613) scale(272.196 232.857)">
<stop stop-color="#88E6A9"/>
<stop offset="0.42273" stop-color="#4856CE"/>
</radialGradient>
<radialGradient id="paint1_radial_259_3" cx="0" cy="0" r="1" gradientUnits="userSpaceOnUse" gradientTransform="translate(229.934 37.7513) rotate(179.237) scale(444.891 451.903)">
<stop stop-color="#88E6A9"/>
<stop offset="0.379516" stop-color="#4856CE"/>
</radialGradient>
</defs>
</svg>
