<svg width="160" height="160" viewBox="0 0 160 160" fill="none" xmlns="http://www.w3.org/2000/svg">
<path fill-rule="evenodd" clip-rule="evenodd" d="M63.4551 157.246C42.9334 162.638 16.3777 161.281 4.0537 142.525C-8.04938 124.106 10.7796 100.184 11.0535 77.4958C11.3195 55.4541 -6.63457 31.6678 5.60312 14.1625C17.9904 -3.55669 43.3274 -0.974011 63.4551 2.5384C80.4379 5.502 91.3744 20.6824 105.399 31.5776C124.844 46.6833 161.626 51.4584 159.944 77.4958C158.227 104.08 119.289 101.292 99.8599 117.35C85.6143 129.124 80.8119 152.685 63.4551 157.246Z" fill="#4856CE"/>
<path fill-rule="evenodd" clip-rule="evenodd" d="M63.4551 157.246C42.9334 162.638 16.3777 161.281 4.0537 142.525C-8.04938 124.106 10.7796 100.184 11.0535 77.4958C11.3195 55.4541 -6.63457 31.6678 5.60312 14.1625C17.9904 -3.55669 43.3274 -0.974011 63.4551 2.5384C80.4379 5.502 91.3744 20.6824 105.399 31.5776C124.844 46.6833 161.626 51.4584 159.944 77.4958C158.227 104.08 119.289 101.292 99.8599 117.35C85.6143 129.124 80.8119 152.685 63.4551 157.246Z" fill="url(#paint0_radial_153_1832)" fill-opacity="0.5"/>
<path fill-rule="evenodd" clip-rule="evenodd" d="M63.4551 157.246C42.9334 162.638 16.3777 161.281 4.0537 142.525C-8.04938 124.106 10.7796 100.184 11.0535 77.4958C11.3195 55.4541 -6.63457 31.6678 5.60312 14.1625C17.9904 -3.55669 43.3274 -0.974011 63.4551 2.5384C80.4379 5.502 91.3744 20.6824 105.399 31.5776C124.844 46.6833 161.626 51.4584 159.944 77.4958C158.227 104.08 119.289 101.292 99.8599 117.35C85.6143 129.124 80.8119 152.685 63.4551 157.246Z" fill="url(#paint1_radial_153_1832)"/>
<path fill-rule="evenodd" clip-rule="evenodd" d="M63.4551 157.246C42.9334 162.638 16.3777 161.281 4.0537 142.525C-8.04938 124.106 10.7796 100.184 11.0535 77.4958C11.3195 55.4541 -6.63457 31.6678 5.60312 14.1625C17.9904 -3.55669 43.3274 -0.974011 63.4551 2.5384C80.4379 5.502 91.3744 20.6824 105.399 31.5776C124.844 46.6833 161.626 51.4584 159.944 77.4958C158.227 104.08 119.289 101.292 99.8599 117.35C85.6143 129.124 80.8119 152.685 63.4551 157.246Z" fill="url(#paint2_radial_153_1832)" fill-opacity="0.2"/>
<defs>
<radialGradient id="paint0_radial_153_1832" cx="0" cy="0" r="1" gradientUnits="userSpaceOnUse" gradientTransform="translate(5.09553 -14.2675) rotate(-2.17474) scale(201.419)">
<stop stop-color="#88E6A9"/>
<stop offset="0.262208" stop-color="#4856CE"/>
</radialGradient>
<radialGradient id="paint1_radial_153_1832" cx="0" cy="0" r="1" gradientUnits="userSpaceOnUse" gradientTransform="translate(126.369 74.3949) rotate(-127.678) scale(130.051)">
<stop stop-color="#88E6A9"/>
<stop offset="0.505158" stop-color="#4856CE"/>
</radialGradient>
<radialGradient id="paint2_radial_153_1832" cx="0" cy="0" r="1" gradientUnits="userSpaceOnUse" gradientTransform="translate(36.1783 120.255) rotate(-69.9779) scale(127.99)">
<stop stop-color="#88E6A9"/>
<stop offset="1" stop-color="#4856CE"/>
</radialGradient>
</defs>
</svg>
