<svg width="130" height="130" viewBox="0 0 130 130" fill="none" xmlns="http://www.w3.org/2000/svg">
<path fill-rule="evenodd" clip-rule="evenodd" d="M32.76 58.24V17.94C32.76 16.4667 33.2367 15.2533 34.19 14.3C35.1433 13.3467 36.3567 12.87 37.83 12.87H98.8C100.187 12.87 101.357 13.3467 102.31 14.3C103.35 15.1667 103.87 16.3367 103.87 17.81C103.87 19.11 103.35 20.2367 102.31 21.19C101.357 22.1433 100.187 22.62 98.8 22.62H42.9V58.24H56.94H98.7428H99.06C101.788 58.24 104 60.4516 104 63.18C104 65.4306 102.495 67.3296 100.437 67.9255L99.4812 68.2677C79.067 75.5784 61.0386 88.1644 47.177 104.65H98.8C100.187 104.65 101.357 105.127 102.31 106.08C103.35 107.033 103.87 108.16 103.87 109.46C103.87 110.933 103.35 112.147 102.31 113.1C101.357 113.967 100.187 114.4 98.8 114.4H39.78H37.83H32.76V109.33V58.24Z" fill="#4856CE"/>
<path d="M32.76 12.74H43.42V114.4H32.76V12.74Z" fill="url(#paint0_linear_153_51)"/>
<path d="M32.76 58.24V99.84C47.2152 80.1741 68.0592 66.1471 91.7212 60.1619L99.32 58.24H32.76Z" fill="url(#paint1_linear_153_51)"/>
<path fill-rule="evenodd" clip-rule="evenodd" d="M56.94 12.74H32.76V68.12L42.12 56.94C53.5298 43.6566 68.2505 33.6278 84.7886 27.871L100.407 22.434C102.481 21.8475 104 19.9412 104 17.68C104 14.9517 101.788 12.74 99.06 12.74H98.1796H56.94Z" fill="#88E6A9"/>
<defs>
<linearGradient id="paint0_linear_153_51" x1="30.68" y1="39.52" x2="56.94" y2="63.44" gradientUnits="userSpaceOnUse">
<stop offset="0.234375" stop-color="#88E6A9"/>
<stop offset="0.578125" stop-color="#4856CE"/>
</linearGradient>
<linearGradient id="paint1_linear_153_51" x1="32.76" y1="58.24" x2="102.18" y2="113.36" gradientUnits="userSpaceOnUse">
<stop stop-color="#4856CE"/>
<stop offset="1" stop-color="#88E6A9"/>
</linearGradient>
</defs>
</svg>
